<svg xmlns="http://www.w3.org/2000/svg" width="32" height="32"><g fill-rule="evenodd" transform="translate(0 -1020.362)"><circle cx="37.045" cy="28.409" r="12.5" fill="#50b748" transform="matrix(1.28 0 0 1.28 -31.418 999.999)"/><path style="line-height:normal;text-indent:0;text-align:start;text-decoration-line:none;text-transform:none;block-progression:tb" fill="#10a711" d="M23.018 30.367a16 16 0 0 0 .24-.107 16 16 0 0 0 1.387-.797 16 16 0 0 0 1.3-.93 16 16 0 0 0 1.201-1.054 16 16 0 0 0 1.092-1.172 16 16 0 0 0 .967-1.272 16 16 0 0 0 .836-1.365 16 16 0 0 0 .695-1.44 16 16 0 0 0 .116-.312l-9.264-9.264-.07-.072c-.075-.075-.16-.142-.239-.213-.068-.061-.133-.125-.205-.183l-.01-.008c-.07-.057-.148-.107-.222-.16-.094-.068-.183-.14-.281-.204a.504.504 0 0 0-.284-.09v.003a.375.375 0 0 0-.22.076c-.014.01-.027.016-.04.027-.032.029-.047.07-.072.107-.033.05-.067.094-.086.15-.01.036-.008.068-.013.104a.547.547 0 0 0-.002.194.41.41 0 0 0 .093.195c.005.006.005.014.01.02l1.467 1.466c.095.155.188.31.26.473.01.022.022.044.031.066.087.208.152.423.201.641.012.051.02.103.03.154.022.127.027.255.037.383l-1.924-1.924-.016-.011a3.318 3.318 0 0 0-.566-.444 3.309 3.309 0 0 0-.194-.115c-.062-.034-.122-.068-.187-.098a3.384 3.384 0 0 0-.32-.125c-.038-.013-.073-.03-.112-.043a.535.535 0 0 0-.148-.025V13c-.02 0-.035.009-.053.012a.373.373 0 0 0-.098.023c-.018.008-.034.02-.05.031a.394.394 0 0 0-.065.051c-.027.028-.038.066-.058.1a.569.569 0 0 0-.082.187c-.008.037-.007.068-.008.106l-.002.039-2.09-2.09-4.1 3.092a.505.505 0 0 1-.3.101H10v2.698l13.018 13.017z" color="#000" font-family="sans-serif" font-weight="400" transform="translate(0 1020.362)"/><path style="line-height:normal;text-indent:0;text-align:start;text-decoration-line:none;text-transform:none;block-progression:tb" fill="#fff" d="M8 3.814v9.084L3.9 9.807a.504.504 0 0 0-.3-.102H2V7.008h1.6a.504.504 0 0 0 .3-.102Zm4.277.27c-.434 0-.629.708-.256.93 1.27.811 1.99 2.083 1.979 3.418-.011 1.335-.751 2.597-2.035 3.392a.511.511 0 0 0-.242.463c.023.345.478.574.77.387 1.542-.957 2.493-2.533 2.507-4.235.014-1.7-.911-3.29-2.44-4.267a.504.504 0 0 0-.283-.088Zm-1.771 1.273c-.478-.003-.602.848-.143.98.983.3 1.637 1.172 1.637 2.157 0 .985-.656 1.857-1.639 2.154a.515.515 0 0 0-.361.487c.003.311.356.565.652.47 1.389-.42 2.348-1.68 2.348-3.11 0-1.431-.958-2.693-2.346-3.114a.501.501 0 0 0-.148-.024z" color="#000" font-family="sans-serif" font-weight="400" overflow="visible" transform="translate(8 1028.006)"/></g></svg>