<svg xmlns="http://www.w3.org/2000/svg" width="32" height="32"><g transform="translate(0 -1020.362)"><circle cx="16" cy="1036.362" r="16" fill="#ef4c45"/><path style="line-height:normal;text-indent:0;text-align:start;text-decoration-line:none;text-transform:none;block-progression:tb" fill="#df2209" fill-rule="evenodd" d="M23.03 30.361a16 16 0 0 0 .228-.101 16 16 0 0 0 1.387-.797 16 16 0 0 0 1.3-.93 16 16 0 0 0 1.201-1.054 16 16 0 0 0 1.092-1.172 16 16 0 0 0 .967-1.272 16 16 0 0 0 .836-1.365 16 16 0 0 0 .695-1.44 16 16 0 0 0 .188-.515l-8.12-8.121c-.01-.01-.023-.016-.034-.026a.454.454 0 0 0-.077-.052c-.014-.008-.027-.018-.043-.024a.393.393 0 0 0-.16-.031.456.456 0 0 0-.185.041.519.519 0 0 0-.159.11l-1.64 1.64-1.643-1.64-.004-.005a.496.496 0 0 0-.16-.107h-.002a.504.504 0 0 0-.193-.04c-.05 0-.095.01-.139.026a.439.439 0 0 0-.12.07c-.047.038-.074.094-.106.145l-2.2-2.199-4.056 3.062a.5.5 0 0 1-.301.104H10v2.664l13.03 13.03z" color="#000" font-family="sans-serif" font-weight="400" transform="translate(0 1020.362)"/><path style="line-height:normal;text-indent:0;text-align:start;text-decoration-line:none;text-transform:none;block-progression:tb" fill="#fff" fill-rule="evenodd" d="M7.938 3.84v8.994L3.88 9.771a.504.504 0 0 0-.3-.101H1.997V7.004H3.58a.504.504 0 0 0 .3-.102Zm2.564 1.957c-.394.002-.63.582-.348.857l1.643 1.643-1.643 1.64c-.382.368.34 1.09.707.708l1.643-1.641 1.64 1.64c.368.383 1.09-.34.708-.706L13.21 8.296l1.64-1.643c.286-.279.036-.868-.363-.857a.506.506 0 0 0-.343.15L12.504 7.59 10.86 5.947a.506.506 0 0 0-.359-.15Z" color="#000" font-family="sans-serif" font-weight="400" overflow="visible" transform="translate(8.002 1028.025)"/></g></svg>